<svg width="24" height="24" viewBox="0 0 24 24" fill="none" xmlns="http://www.w3.org/2000/svg">
<path d="M13.4 17.42H10.89C9.25003 17.42 7.92003 16.04 7.92003 14.34C7.92003 13.93 8.26003 13.59 8.67003 13.59C9.08003 13.59 9.42003 13.93 9.42003 14.34C9.42003 15.21 10.08 15.92 10.89 15.92H13.4C14.05 15.92 14.59 15.34 14.59 14.64C14.59 13.77 14.28 13.6 13.77 13.42L9.74003 12C8.96003 11.73 7.91003 11.15 7.91003 9.35996C7.91003 7.81996 9.12003 6.57996 10.6 6.57996H13.11C14.75 6.57996 16.08 7.95996 16.08 9.65996C16.08 10.07 15.74 10.41 15.33 10.41C14.92 10.41 14.58 10.07 14.58 9.65996C14.58 8.78996 13.92 8.07996 13.11 8.07996H10.6C9.95003 8.07996 9.41003 8.65996 9.41003 9.35996C9.41003 10.23 9.72003 10.4 10.23 10.58L14.26 12C15.04 12.27 16.09 12.85 16.09 14.64C16.08 16.17 14.88 17.42 13.4 17.42Z" fill="#3E9C35"/>
<path d="M12 18.75C11.59 18.75 11.25 18.41 11.25 18V6C11.25 5.59 11.59 5.25 12 5.25C12.41 5.25 12.75 5.59 12.75 6V18C12.75 18.41 12.41 18.75 12 18.75Z" fill="#3E9C35"/>
<path d="M12 22.75C6.07 22.75 1.25 17.93 1.25 12C1.25 6.07 6.07 1.25 12 1.25C17.93 1.25 22.75 6.07 22.75 12C22.75 17.93 17.93 22.75 12 22.75ZM12 2.75C6.9 2.75 2.75 6.9 2.75 12C2.75 17.1 6.9 21.25 12 21.25C17.1 21.25 21.25 17.1 21.25 12C21.25 6.9 17.1 2.75 12 2.75Z" fill="#3E9C35"/>
</svg>
