<svg width="36" height="25" viewBox="0 0 36 25" fill="none" xmlns="http://www.w3.org/2000/svg">
<path d="M29.025 9.56C28.005 4.385 23.46 0.5 18 0.5C13.665 0.5 9.9 2.96 8.025 6.56C3.51 7.04 0 10.865 0 15.5C0 20.465 4.035 24.5 9 24.5H28.5C32.64 24.5 36 21.14 36 17C36 13.04 32.925 9.83 29.025 9.56ZM28.5 21.5H9C5.685 21.5 3 18.815 3 15.5C3 12.425 5.295 9.86 8.34 9.545L9.945 9.38L10.695 7.955C12.12 5.21 14.91 3.5 18 3.5C21.93 3.5 25.32 6.29 26.085 10.145L26.535 12.395L28.83 12.56C31.17 12.71 33 14.675 33 17C33 19.475 30.975 21.5 28.5 21.5ZM12 14H15.825V18.5H20.175V14H24L18 8L12 14Z" fill="#1849D6"/>
</svg>
