<svg width="300" height="298" viewBox="0 0 300 298" fill="none" xmlns="http://www.w3.org/2000/svg">
<path d="M206.863 147.87C212.11 154.281 211.165 163.731 204.754 168.978V168.978C198.342 174.224 188.892 173.279 183.646 166.868L155.623 132.622L118.101 86.7667L46.9003 145.028L26.9521 120.65L98.1532 62.3881L100.475 60.4882C112.016 51.045 129.026 52.7452 138.469 64.2857L206.863 147.87Z" fill="#DBD5FF"/>
<path d="M112.445 225.129C117.691 231.541 116.746 240.991 110.335 246.237V246.237C103.923 251.484 94.4731 250.539 89.2268 244.128L14.5001 152.805C8.55438 145.538 9.62487 134.828 16.8911 128.882L26.9522 120.65L112.445 225.129Z" fill="#DBD5FF"/>
<path d="M92.5758 149.769C87.375 143.321 88.3863 133.877 94.8346 128.676V128.676C101.283 123.476 110.726 124.487 115.927 130.935L143.707 165.379L180.904 211.498L252.515 153.741L272.29 178.26L200.679 236.017L198.344 237.9C186.737 247.261 169.739 245.441 160.377 233.834L92.5758 149.769Z" fill="#715DE3"/>
<path d="M187.538 73.1783C182.338 66.73 183.349 57.2865 189.797 52.0857V52.0857C196.245 46.8849 205.689 47.8962 210.89 54.3445L284.969 146.193C290.864 153.502 289.717 164.204 282.409 170.098L272.29 178.26L187.538 73.1783Z" fill="#715DE3"/>
</svg>
