<svg width="69" height="68" viewBox="0 0 69 68" fill="none" xmlns="http://www.w3.org/2000/svg">
<g clip-path="url(#clip0_120_97)">
<path d="M18.6301 25.8999H19.1918C21.3543 25.8999 23.1236 27.6693 23.1236 29.8318V49.4908C23.1236 51.6533 21.3543 53.4226 19.1918 53.4226H18.6301C16.4676 53.4226 14.6983 51.6533 14.6983 49.4908V29.8318C14.6983 27.6693 16.4676 25.8999 18.6301 25.8999ZM34.3574 14.1045C36.5199 14.1045 38.2892 15.8738 38.2892 18.0363V49.4908C38.2892 51.6533 36.5199 53.4226 34.3574 53.4226C32.1949 53.4226 30.4256 51.6533 30.4256 49.4908V18.0363C30.4256 15.8738 32.1949 14.1045 34.3574 14.1045ZM50.0846 36.572C52.2471 36.572 54.0165 38.3413 54.0165 40.5038V49.4908C54.0165 51.6533 52.2471 53.4226 50.0846 53.4226C47.9221 53.4226 46.1528 51.6533 46.1528 49.4908V40.5038C46.1528 38.3413 47.9221 36.572 50.0846 36.572Z" fill="#715DE3"/>
</g>
<defs>
<clipPath id="clip0_120_97">
<rect width="67.4025" height="67.4025" fill="white" transform="translate(0.656128 0.0622559)"/>
</clipPath>
</defs>
</svg>
